HIERARCHY
ROOT Hip
{
	OFFSET 0 1.131 0.0052
	CHANNELS 6 Xposition Yposition Zposition Xrotation Yrotation Zrotation
	JOINT Abdomen
	{
		OFFSET 0 -0.047353 -0.05
		CHANNELS 3 Xrotation Zrotation Yrotation
		JOINT Chest
		{
			OFFSET 0 0.132153 0.007439
			CHANNELS 3 Xrotation Zrotation Yrotation
			JOINT Neck
			{
				OFFSET 0 0.3078 0.006161
				CHANNELS 3 Xrotation Zrotation Yrotation
				JOINT Head_comp
				{
					OFFSET 0 0.0884 0.013
					CHANNELS 3 Xrotation Yrotation Zrotation
					End Site
					{
						OFFSET -0 0.156 0.0624
					}
				}
			}
			JOINT Left_Collar
			{
				OFFSET 0.02282 0.250342 0.017193
				CHANNELS 2 Yrotation Zrotation
				JOINT Left_Shoulder
				{
					OFFSET 0.15421 0 0
					CHANNELS 3 Xrotation Yrotation Zrotation
					JOINT Left_Forearm
					{
						OFFSET 0.265212 0 0
						CHANNELS 2 Yrotation Xrotation
						JOINT Left_Hand
						{
							OFFSET 0.27571 0 0
							CHANNELS 2 Zrotation Yrotation
							JOINT L1ProxPhalanx
							{
								OFFSET 0.014142 0.001733 0.014142
								CHANNELS 3 Yrotation Zrotation Xrotation
								JOINT L1MidPhalanx
								{
									OFFSET 0.04 0 0
									CHANNELS 1 Zrotation
									JOINT L1DistPhalanx
									{
										OFFSET 0.035 0 0
										CHANNELS 1 Zrotation
										End Site
										{
											OFFSET 0.029 -0 -0
										}
									}
								}
							}
							JOINT L2ProxPhalanx
							{
								OFFSET 0.0821037 0.001578 0.0219996
								CHANNELS 2 Yrotation Zrotation
								JOINT L2MidPhalanx
								{
									OFFSET 0.04 0 0
									CHANNELS 1 Zrotation
									JOINT L2DistPhalanx
									{
										OFFSET 0.028 0 0
										CHANNELS 1 Zrotation
										End Site
										{
											OFFSET 0.02 -0 -0
										}
									}
								}
							}
							JOINT L3ProxPhalanx
							{
								OFFSET 0.083 0 0
								CHANNELS 2 Yrotation Zrotation
								JOINT L3MidPhalanx
								{
									OFFSET 0.053 0 0
									CHANNELS 1 Zrotation
									JOINT L3DistPhalanx
									{
										OFFSET 0.03 0 0
										CHANNELS 1 Zrotation
										End Site
										{
											OFFSET 0.023 -0 -0
										}
									}
								}
							}
							JOINT L4ProxPhalanx
							{
								OFFSET 0.077274 -0.000761 -0.0207055
								CHANNELS 2 Yrotation Zrotation
								JOINT L4MidPhalanx
								{
									OFFSET 0.05 0 0
									CHANNELS 1 Zrotation
									JOINT L4DistPhalanx
									{
										OFFSET 0.03 0 0
										CHANNELS 1 Zrotation
										End Site
										{
											OFFSET 0.023 -0 -0
										}
									}
								}
							}
							JOINT L5ProxPhalanx
							{
								OFFSET 0.0675499 -0.001644 -0.039
								CHANNELS 2 Yrotation Zrotation
								JOINT L5MidPhalanx
								{
									OFFSET 0.04 0 0
									CHANNELS 1 Zrotation
									JOINT L5DistPhalanx
									{
										OFFSET 0.021 0 0
										CHANNELS 1 Zrotation
										End Site
										{
											OFFSET 0.022 -0 -0
										}
									}
								}
							}
						}
					}
				}
			}
			JOINT Right_Collar
			{
				OFFSET -0.02282 0.250342 0.017193
				CHANNELS 2 Yrotation Zrotation
				JOINT Right_Shoulder
				{
					OFFSET -0.15421 0 0
					CHANNELS 3 Xrotation Yrotation Zrotation
					JOINT Right_Forearm
					{
						OFFSET -0.265212 0 0
						CHANNELS 2 Yrotation Xrotation
						JOINT Right_Hand
						{
							OFFSET -0.27571 3e-006 0
							CHANNELS 2 Zrotation Yrotation
							JOINT R1ProxPhalanx
							{
								OFFSET -0.014142 0.001733 0.014142
								CHANNELS 3 Yrotation Zrotation Xrotation
								JOINT R1MidPhalanx
								{
									OFFSET -0.04 0 0
									CHANNELS 1 Zrotation
									JOINT R1DistPhalanx
									{
										OFFSET -0.035 0 0
										CHANNELS 1 Zrotation
										End Site
										{
											OFFSET -0.029 -0 -0
										}
									}
								}
							}
							JOINT R2ProxPhalanx
							{
								OFFSET -0.0821037 0.001578 0.0219996
								CHANNELS 2 Yrotation Zrotation
								JOINT R2MidPhalanx
								{
									OFFSET -0.04 0 0
									CHANNELS 1 Zrotation
									JOINT R2DistPhalanx
									{
										OFFSET -0.028 0 0
										CHANNELS 1 Zrotation
										End Site
										{
											OFFSET -0.02 -0 -0
										}
									}
								}
							}
							JOINT R3ProxPhalanx
							{
								OFFSET -0.083 0 0
								CHANNELS 2 Yrotation Zrotation
								JOINT R3MidPhalanx
								{
									OFFSET -0.053 0 0
									CHANNELS 1 Zrotation
									JOINT R3DistPhalanx
									{
										OFFSET -0.03 0 0
										CHANNELS 1 Zrotation
										End Site
										{
											OFFSET -0.023 -0 -0
										}
									}
								}
							}
							JOINT R4ProxPhalanx
							{
								OFFSET -0.077274 -0.000761 -0.0207055
								CHANNELS 2 Yrotation Zrotation
								JOINT R4MidPhalanx
								{
									OFFSET -0.05 0 0
									CHANNELS 1 Zrotation
									JOINT R4DistPhalanx
									{
										OFFSET -0.03 0 0
										CHANNELS 1 Zrotation
										End Site
										{
											OFFSET -0.023 -0 -0
										}
									}
								}
							}
							JOINT R5ProxPhalanx
							{
								OFFSET -0.0675499 -0.001644 -0.039
								CHANNELS 2 Yrotation Zrotation
								JOINT R5MidPhalanx
								{
									OFFSET -0.04 0 0
									CHANNELS 1 Zrotation
									JOINT R5DistPhalanx
									{
										OFFSET -0.021 0 0
										CHANNELS 1 Zrotation
										End Site
										{
											OFFSET -0.022 -0 -0
										}
									}
								}
							}
						}
					}
				}
			}
		}
	}
	JOINT Left_Thigh
	{
		OFFSET 0.1118 -0.1612 -0.0442
		CHANNELS 3 Xrotation Zrotation Yrotation
		JOINT Left_Shin
		{
			OFFSET 0 -0.477856 0
			CHANNELS 1 Xrotation
			JOINT Left_Foot
			{
				OFFSET 0 -0.431952 0
				CHANNELS 2 Xrotation Zrotation
				JOINT Left_Toe
				{
					OFFSET 0 -0.0442 0.119
					CHANNELS 1 Xrotation
					End Site
					{
						OFFSET -0 -0 0.07
					}
				}
			}
		}
	}
	JOINT Right_Thigh
	{
		OFFSET -0.1118 -0.1612 -0.0442
		CHANNELS 3 Xrotation Zrotation Yrotation
		JOINT Right_Shin
		{
			OFFSET 0 -0.477856 0
			CHANNELS 1 Xrotation
			JOINT Right_Foot
			{
				OFFSET 0 -0.431952 0
				CHANNELS 2 Xrotation Zrotation
				JOINT Right_Toe
				{
					OFFSET 0 -0.0442 0.119
					CHANNELS 1 Xrotation
					End Site
					{
						OFFSET -0 -0 0.07
					}
				}
			}
		}
	}
}
MOTION
Frames: 7
Frame Time: 0.009975
-0.10103 -0.0600567 0.0402783 -4.33391e-013 7.18287e-009 -5.10968e-006 0 -0 0 0 -0 0 0 -0 0 -0.712051 0.289946 3.88256e-019 -0.30384 -22.5873 -8.17766 -24.8639 -25.7063 -50.9873 10.0112 13.8168 -10.3751 -7.63552 -79.7302 133.262 -6.47563 -5.77158 1.70667 -27.4733 -5.60456 -10.1656 0.436594 0.126337 -6.68 -6.1817 -5.52813 1.9417 -15.1916 -2.82033 1.6233 5.04203 -54.7422 25.0129 0.0637519 22.436 -7.90852 25.4734 25.0849 47.1586 10.7973 -16.2858 6.81766 94.9596 82.9517 41.7261 4.95492 3.78172 -0.0706447 19.4201 5.14028 10.8545 2.40715 -0.414029 1.76543 3.49582 6.46951 -2.21901 9.47145 3.22737 -2.18712 -4.88828 26.9078 -7.73232 0.0690999 -0.678252 -0.000817974 0.0240216 -0.0931166 0.678257 0 0.0805055 -0.678251 -0.000952987 1.20138e-006 -0.080501 0.678257 0 
-0.10103 -0.0600567 0.0402774 -6.89127e-013 7.17617e-009 -5.10968e-006 0 -0 0 0 -0 0 0 -0 0 -0.712051 0.289949 3.22874e-015 -0.30384 -22.5873 -8.17766 -24.8639 -25.7063 -50.9873 10.0112 13.8168 -10.3751 -7.63552 -79.7302 133.262 -6.47563 -5.77158 1.70667 -27.4733 -5.60456 -10.1656 0.436594 0.126337 -6.68 -6.1817 -5.52813 1.9417 -15.1916 -2.82033 1.6233 5.04203 -54.7422 25.0129 0.0686283 22.4467 -7.88277 25.485 25.0584 47.1298 10.8232 -16.3516 6.76633 95.0184 83.0807 41.6838 4.93938 3.81069 0.0777255 19.289 5.17158 10.9731 2.37814 -0.428579 1.70623 3.49013 6.45867 -2.21938 9.43475 3.26367 -2.20129 -4.88846 26.6733 -7.43525 0.0690459 -0.678251 -0.000817335 0.0240216 -0.0930627 0.678257 0 0.0804515 -0.678251 -0.000952348 1.21949e-006 -0.0804471 0.678257 0 
-0.101026 -0.0600567 0.0402778 -3.61244e-012 7.17325e-009 -5.10968e-006 0 -0 0 0 -0 0 0 -0 0 -0.712051 0.289946 4.68431e-015 -0.30384 -22.5873 -8.17766 -24.8639 -25.7063 -50.9873 10.0112 13.8168 -10.3751 -7.63552 -79.7302 133.262 -6.47563 -5.77158 1.70667 -27.4733 -5.60456 -10.1656 0.436594 0.126337 -6.68 -6.1817 -5.52813 1.9417 -15.1916 -2.82033 1.6233 5.04203 -54.7422 25.0129 0.071198 22.4546 -7.87459 25.4843 25.0346 47.0863 10.8561 -16.4446 6.79293 95.0826 83.3075 41.5568 4.93581 3.78429 0.171561 19.249 5.15193 11.066 2.32523 -0.435337 1.64648 3.47515 6.42808 -2.21755 9.43722 3.21707 -2.2197 -4.88876 26.5094 -7.36404 0.06907 -0.678489 -0.000817907 0.0240216 -0.0930868 0.678495 0 0.0804748 -0.678489 -0.000952957 1.39459e-006 -0.0804705 0.678495 0 
-0.101021 -0.0600568 0.0402798 -8.9873e-012 7.18061e-009 -5.10968e-006 0 -0 0 0 -0 0 0 -0 0 -0.712052 0.289933 8.89495e-015 -0.30384 -22.5873 -8.17766 -24.8639 -25.7063 -50.9873 10.0112 13.8168 -10.3751 -7.63552 -79.7302 133.262 -6.47563 -5.77158 1.70667 -27.4733 -5.60456 -10.1656 0.436594 0.126337 -6.68 -6.1817 -5.52813 1.9417 -15.1916 -2.82033 1.6233 5.04203 -54.7422 25.0129 0.0700109 22.4624 -7.8723 25.4811 25.014 47.0321 10.8944 -16.5323 6.83297 95.3692 83.5573 41.1235 4.95012 3.78027 0.263571 19.2781 5.08567 11.1053 2.32915 -0.435647 1.6173 3.45753 6.45065 -2.21309 9.4529 3.24344 -2.22515 -4.88634 26.306 -7.21802 0.0691973 -0.678829 -0.000819824 0.0240216 -0.0932141 0.678835 0 0.080602 -0.678829 -0.000954942 2.83165e-006 -0.080599 0.678835 0 
-0.101017 -0.0600568 0.0402829 -6.03101e-012 7.19616e-009 -5.10968e-006 0 -0 0 0 -0 0 0 -0 0 -0.712052 0.289922 7.03482e-015 -0.30384 -22.5873 -8.17766 -24.8639 -25.7063 -50.9873 10.0112 13.8168 -10.3751 -7.63552 -79.7302 133.262 -6.47563 -5.77158 1.70667 -27.4733 -5.60456 -10.1656 0.436594 0.126337 -6.68 -6.1817 -5.52813 1.9417 -15.1916 -2.82033 1.6233 5.04203 -54.7422 25.0129 0.066736 22.4793 -7.87861 25.4724 24.9959 46.9771 10.9288 -16.5806 6.88055 95.336 83.8222 41.3516 4.93222 3.70071 0.358089 19.2829 5.03387 11.1311 2.38028 -0.433407 1.5711 3.46861 6.53384 -2.21023 9.48434 3.27524 -2.19568 -4.88628 26.1364 -7.02293 0.0693899 -0.679105 -0.000822441 0.0240216 -0.0934067 0.67911 0 0.0807956 -0.679105 -0.000957623 1.2376e-006 -0.0807911 0.67911 0 
-0.101016 -0.0600568 0.0402865 1.24828e-011 7.21514e-009 -5.10968e-006 0 -0 0 0 -0 0 0 -0 0 -0.712052 0.28991 6.21831e-015 -0.30384 -22.5873 -8.17766 -24.8639 -25.7063 -50.9873 10.0112 13.8168 -10.3751 -7.63552 -79.7302 133.262 -6.47563 -5.77158 1.70667 -27.4733 -5.60456 -10.1656 0.436594 0.126337 -6.68 -6.1817 -5.52813 1.9417 -15.1916 -2.82033 1.6233 5.04203 -54.7422 25.0129 0.0690927 22.4946 -7.76801 25.4903 24.9249 46.9721 10.8788 -16.6035 6.91519 94.7666 83.9545 41.8663 4.90263 3.6022 0.418479 19.2483 5.06015 11.0232 2.45089 -0.435749 1.58502 3.4918 6.58579 -2.21039 9.51895 3.23157 -2.17604 -4.88566 25.9604 -6.81856 0.0696157 -0.679134 -0.000825151 0.0240216 -0.0936324 0.67914 0 0.0810213 -0.679134 -0.00096034 0 -0.0810156 0.679139 0 
-0.101013 -0.0600569 0.0402922 3.61564e-012 7.23659e-009 -5.10968e-006 0 -0 0 0 -0 0 0 -0 0 -0.712053 0.289899 2.54106e-014 -0.30384 -22.5873 -8.17766 -24.8639 -25.7063 -50.9873 10.0112 13.8168 -10.3751 -7.63552 -79.7302 133.262 -6.47563 -5.77158 1.70667 -27.4733 -5.60456 -10.1656 0.436594 0.126337 -6.68 -6.1817 -5.52813 1.9417 -15.1916 -2.82033 1.6233 5.04203 -54.7422 25.0129 0.0630718 22.4901 -7.61214 25.5315 24.8224 47.0017 10.7829 -16.6074 6.93354 94.0765 83.9285 42.2547 4.90418 3.61226 0.465791 19.1698 5.11816 10.9055 2.5317 -0.440471 1.59742 3.53052 6.59385 -2.21384 9.55323 3.17418 -2.20009 -4.88105 25.7207 -6.57947 0.0699779 -0.679346 -0.000829704 0.0240216 -0.0939946 0.679352 0 0.0813835 -0.679346 -0.000964936 8.23892e-007 -0.0813786 0.679352 0 
